<?xml version="1.0" encoding="UTF-8"?>
<svg width="256px" height="256px" viewBox="0 0 256 256" version="1.1" xmlns="http://www.w3.org/2000/svg">
    <g stroke="none" stroke-width="1" fill="none" fill-rule="evenodd">
        <g fill="#4F3422" fill-rule="nonzero">
            <path d="M248.107,64.107 L191.88,7.88 C190.348,6.36 188.249,5.516 186.04,5.527 C183.831,5.538 181.741,6.403 180.224,7.939 L167.139,21.035 L146.156,0.089 C144.645,-0.413 143.019,-0.025 141.866,1.162 L92.089,51.003 C90.958,52.142 90.575,53.737 91.057,55.219 L111.089,76.208 L8.005,179.115 C6.471,180.647 5.617,182.743 5.617,184.935 C5.617,187.127 6.471,189.224 8.005,190.756 L64.219,247.008 C65.752,248.541 67.85,249.395 70.043,249.395 C72.236,249.395 74.334,248.541 75.867,247.008 L178.995,144.099 L199.995,165.155 C200.564,165.724 201.274,166.113 202.044,166.283 C202.815,166.454 203.616,166.401 204.357,166.128 L205.022,166.128 L254.843,116.219 L255.995,114.048 C256.482,112.571 256.102,111.024 255.021,109.96 L234.022,89.016 L247.067,75.963 C248.591,74.434 249.436,72.348 249.43,70.166 C249.424,67.984 248.568,65.903 247.035,64.384 L248.107,64.107 Z M177.155,127.104 L168.009,117.952 L175.953,110.016 L185.139,119.168 L177.155,127.104 Z M190.008,114.357 L180.862,105.205 L192.992,93.069 L202.138,102.235 L190.008,114.357 Z M209.936,94.4 L200.79,85.248 L212.904,73.099 L222.05,82.251 L209.936,94.4 Z" opacity="0.8"></path>
        </g>
    </g>
</svg> 