<?xml version="1.0" encoding="UTF-8"?>
<svg width="256px" height="256px" viewBox="0 0 256 256" version="1.1" xmlns="http://www.w3.org/2000/svg">
    <g stroke="none" stroke-width="1" fill="none" fill-rule="evenodd">
        <g fill="#4F3422" fill-rule="nonzero">
            <path d="M128,16 C116.954,16 108,24.954 108,36 C108,47.046 116.954,56 128,56 C139.046,56 148,47.046 148,36 C148,24.954 139.046,16 128,16 Z M128,32 C130.208,32 132,33.792 132,36 C132,38.208 130.208,40 128,40 C125.792,40 124,38.208 124,36 C124,33.792 125.792,32 128,32 Z" opacity="0.8"></path>
            <path d="M128,0 C57.312,0 0,57.312 0,128 C0,198.688 57.312,256 128,256 C198.688,256 256,198.688 256,128 C256,57.312 198.688,0 128,0 Z M128,16 C171.123,16 207.456,46.176 216,87.568 L207.52,88.112 C200.128,49.616 167.472,22.4 128,22.4 C83.136,22.4 46.4,59.136 46.4,104 C46.4,143.472 73.616,176.128 112.112,183.52 L111.568,192 C70.176,183.456 40,147.123 40,104 C40,55.264 79.264,16 128,16 Z M128,68 C116.954,68 108,76.954 108,88 C108,99.046 116.954,108 128,108 C139.046,108 148,99.046 148,88 C148,76.954 139.046,68 128,68 Z M128,84 C130.208,84 132,85.792 132,88 C132,90.208 130.208,92 128,92 C125.792,92 124,90.208 124,88 C124,85.792 125.792,84 128,84 Z M60,104 C48.954,104 40,112.954 40,124 C40,135.046 48.954,144 60,144 C71.046,144 80,135.046 80,124 C80,112.954 71.046,104 60,104 Z M60,120 C62.208,120 64,121.792 64,124 C64,126.208 62.208,128 60,128 C57.792,128 56,126.208 56,124 C56,121.792 57.792,120 60,120 Z M196,104 C184.954,104 176,112.954 176,124 C176,135.046 184.954,144 196,144 C207.046,144 216,135.046 216,124 C216,112.954 207.046,104 196,104 Z M196,120 C198.208,120 200,121.792 200,124 C200,126.208 198.208,128 196,128 C193.792,128 192,126.208 192,124 C192,121.792 193.792,120 196,120 Z M128,148 C116.954,148 108,156.954 108,168 C108,179.046 116.954,188 128,188 C139.046,188 148,179.046 148,168 C148,156.954 139.046,148 128,148 Z M128,164 C130.208,164 132,165.792 132,168 C132,170.208 130.208,172 128,172 C125.792,172 124,170.208 124,168 C124,165.792 125.792,164 128,164 Z M128,200 C116.954,200 108,208.954 108,220 C108,231.046 116.954,240 128,240 C139.046,240 148,231.046 148,220 C148,208.954 139.046,200 128,200 Z M128,216 C130.208,216 132,217.792 132,220 C132,222.208 130.208,224 128,224 C125.792,224 124,222.208 124,220 C124,217.792 125.792,216 128,216 Z" opacity="0.8"></path>
        </g>
    </g>
</svg> 